# File created by Blade
# Date/Time:  Tue Jan 27 17:21:46 2015
#---------------------------------------------------------
:version 1.10
:name HOM
:units
  mass 1.0
  length 1.000000
  angle deg
:documentation
     Acclaim Skeleton File
:root
   axis xyz
   order TX TY TZ RX RY RZ
   position 0.000000 0.000000 0.000000
   orientation 0 0 0
:bonedata
   begin
      id 1
      name Spine_dum
      direction 0.000000 1.000000 0.000000
      length 7.539951
      axis 0.0 0.0 0.0 xyz
   end
   begin
      id 2
      name LeftUpLeg_dum
      direction 1.000000 0.000000 0.000000
      length 3.345476
      axis 0.0 0.0 0.0 xyz
   end
   begin
      id 3
      name RightUpLeg_dum
      direction -1.000000 0.000000 0.000000
      length 3.345476
      axis 0.0 0.0 0.0 xyz
   end
   begin
      id 4
      name Spine
      direction 0.000000 1.000000 0.000000
      length 0.000000
      axis 0.0 0.0 0.0 xyz
      dof rx ry rz
   end
   begin
      id 5
      name Spine_dum1
      direction 0.000000 1.000000 0.000000
      length 15.093809
      axis 0.0 0.0 0.0 xyz
   end
   begin
      id 6
      name Spine_dum2
      direction 0.000000 1.000000 0.000000
      length 9.738928
      axis 0.0 0.0 0.0 xyz
   end
   begin
      id 7
      name Spine_dum3
      direction 0.000000 1.000000 0.000000
      length 9.738928
      axis 0.0 0.0 0.0 xyz
   end
   begin
      id 8
      name Head
      direction 0.000000 1.000000 0.000000
      length 4.527550
      axis 0.0 0.0 0.0 xyz
      dof rx ry rz
   end
   begin
      id 9
      name LeftShoulder
      direction 1.000000 0.000000 0.000000
      length 7.084015
      axis 0.0 0.0 -90.0 xyz
      dof rx ry rz
   end
   begin
      id 10
      name LeftArm
      direction 1.000000 0.000000 0.000000
      length 10.259319
      axis 0.0 0.0 -90.0 xyz
      dof rx ry rz
   end
   begin
      id 11
      name LeftForeArm
      direction 1.000000 0.000000 0.000000
      length 9.896984
      axis 0.0 0.0 -90.0 xyz
      dof ry rz rx
   end
   begin
      id 12
      name LeftHand
      direction 0.000000 0.000000 0.000000
      length 0.000000
      axis 0.0 0.0 -90.0 xyz
      dof rx ry rz
   end
   begin
      id 13
      name LeftHand_dum1
      direction 0.000000 0.000000 0.000000
      length 0.000000
      axis 0.0 0.0 -90.0 xyz
   end
   begin
      id 14
      name LeftHand_dum2
      direction 1.000000 0.000000 0.000000
      length 3.937000
      axis 0.0 0.0 -90.0 xyz
   end
   begin
      id 15
      name LeftHandThumb1
      direction 0.000000 0.000000 1.000000
      length 3.937000
      axis 0.0 0.0 -90.0 xyz
      dof rx rz ry
   end
   begin
      id 16
      name RightShoulder
      direction -1.000000 0.000000 0.000000
      length 7.084015
      axis 0.0 0.0 90.0 xyz
      dof rx ry rz
   end
   begin
      id 17
      name RightArm
      direction -1.000000 0.000000 0.000000
      length 10.259319
      axis 0.0 0.0 90.0 xyz
      dof rx ry rz
   end
   begin
      id 18
      name RightForeArm
      direction -1.000000 0.000000 0.000000
      length 9.896984
      axis 0.0 0.0 90.0 xyz
      dof ry rz rx
   end
   begin
      id 19
      name RightHand
      direction 0.000000 0.000000 0.000000
      length 0.000000
      axis 0.0 0.0 90.0 xyz
      dof rx ry rz
   end
   begin
      id 20
      name RightHand_dum1
      direction 0.000000 0.000000 0.000000
      length 0.000000
      axis 0.0 0.0 90.0 xyz
   end
   begin
      id 21
      name RightHand_dum2
      direction -1.000000 0.000000 0.000000
      length 3.937000
      axis 0.0 0.0 90.0 xyz
   end
   begin
      id 22
      name RightHandThumb1
      direction 0.000000 0.000000 1.000000
      length 3.937000
      axis 0.0 0.0 90.0 xyz
      dof rx rz ry
   end
   begin
      id 23
      name LeftUpLeg
      direction 0.000000 -1.000000 0.000000
      length 19.114733
      axis 0.0 0.0 0.0 xyz
      dof rx ry rz
   end
   begin
      id 24
      name LeftLeg
      direction 0.000000 -1.000000 0.000000
      length 16.045604
      axis 0.0 0.0 0.0 xyz
      dof rx ry rz
   end
   begin
      id 25
      name LeftFoot
      direction 0.000000 -0.258819 0.965926
      length 5.543155
      axis 15.0 0.0 0.0 xyz
      dof rx ry rz
   end
   begin
      id 26
      name LeftToeBase
      direction 0.000000 0.000000 1.000000
      length 2.952750
      axis 0.0 0.0 0.0 xyz
      dof rx ry rz
   end
   begin
      id 27
      name RightUpLeg
      direction 0.000000 -1.000000 0.000000
      length 19.114733
      axis 0.0 0.0 0.0 xyz
      dof rx ry rz
   end
   begin
      id 28
      name RightLeg
      direction 0.000000 -1.000000 0.000000
      length 16.045604
      axis 0.0 0.0 0.0 xyz
      dof rx ry rz
   end
   begin
      id 29
      name RightFoot
      direction 0.000000 -0.258819 0.965926
      length 5.543155
      axis 15.0 0.0 0.0 xyz
      dof rx ry rz
   end
   begin
      id 30
      name RightToeBase
      direction 0.000000 0.000000 1.000000
      length 2.952750
      axis 0.0 0.0 0.0 xyz
      dof rx ry rz
   end
:hierarchy
   begin
      root Spine_dum LeftUpLeg_dum RightUpLeg_dum
      Spine_dum Spine
      LeftUpLeg_dum LeftUpLeg
      RightUpLeg_dum RightUpLeg
      Spine Spine_dum1 Spine_dum2 Spine_dum3
      Spine_dum1 Head
      Spine_dum2 LeftShoulder
      Spine_dum3 RightShoulder
      LeftShoulder LeftArm
      LeftArm LeftForeArm
      LeftForeArm LeftHand
      LeftHand LeftHand_dum1 LeftHand_dum2
      LeftHand_dum1 LeftHandThumb1
      RightShoulder RightArm
      RightArm RightForeArm
      RightForeArm RightHand
      RightHand RightHand_dum1 RightHand_dum2
      RightHand_dum1 RightHandThumb1
      LeftUpLeg LeftLeg
      LeftLeg LeftFoot
      LeftFoot LeftToeBase
      RightUpLeg RightLeg
      RightLeg RightFoot
      RightFoot RightToeBase
   end

# File created by Blade
# Date/Time:  Tue Jan 27 17:21:37 2015
# Frame Rate: 120.000 fps
#------------------------------------------------------
:FULLY-SPECIFIED
:DEGREES
2015
root -2.926221 36.575215 -0.243916 1.720382 31.053425 4.730936
Spine 11.397215 5.100263 -2.343441
Head 4.649962 -5.509759 1.050596
LeftShoulder 1.390833 -16.976000 9.735821
LeftArm 7.938457 -18.567609 -45.978955
LeftForeArm 0.032631 -0.000000 69.323204
LeftHand -15.766509 0.000000 47.953332
LeftHandThumb1 -26.253704 0.000000 33.147579
RightShoulder -1.811180 -16.366076 1.422767
RightArm 20.588456 -20.761212 47.499122
RightForeArm 179.743239 -0.000000 36.962803
RightHand -0.402090 -0.000000 0.662195
RightHandThumb1 -24.326973 -0.000000 -32.862282
LeftUpLeg -63.772579 29.657666 -1.095836
LeftLeg 59.349067 -0.000000 -0.000000
LeftFoot 0.538140 -2.425638 -28.844538
LeftToeBase 15.835427 -0.000000 -0.000000
RightUpLeg -8.104495 -17.402209 5.181693
RightLeg 19.159195 -0.000000 -0.000000
RightFoot -18.038216 -16.078894 -2.326653
RightToeBase 3.328081 -0.000000 -0.000000
2016
root -2.916186 36.573710 -0.236156 1.768007 31.155541 4.728775
Spine 11.259067 4.990081 -2.361405
Head 4.576421 -5.556612 1.077670
LeftShoulder 1.430184 -16.971307 9.721181
LeftArm 7.979405 -18.488147 -45.993537
LeftForeArm 0.153333 -0.000000 69.288226
LeftHand -15.802433 -0.000000 48.137804
LeftHandThumb1 -26.253704 0.000000 33.147579
RightShoulder -1.877834 -16.407088 1.517895
RightArm 20.464367 -20.800291 47.497592
RightForeArm 179.873366 -0.000000 36.916207
RightHand -0.414011 -0.000000 0.524844
RightHandThumb1 -24.326973 -0.000000 -32.862282
LeftUpLeg -63.836009 29.401189 -0.909999
LeftLeg 62.094215 -0.000000 -0.000000
LeftFoot 0.109852 -1.912442 -28.516288
LeftToeBase 15.284873 -0.000000 -0.000000
RightUpLeg -8.157901 -17.493746 5.189374
RightLeg 19.203872 -0.000000 -0.000000
RightFoot -18.084850 -16.050951 -2.245643
RightToeBase 3.314271 -0.000000 -0.000000
2017
root -2.906296 36.571897 -0.230541 1.847707 31.266967 4.714161
Spine 11.073970 4.864437 -2.366170
Head 4.513470 -5.622283 1.117579
LeftShoulder 1.468875 -16.970839 9.701759
LeftArm 7.990268 -18.425133 -46.015749
LeftForeArm 0.098284 -0.000000 69.294421
LeftHand -15.634330 -0.000000 47.759230
LeftHandThumb1 -26.253704 0.000000 33.147579
RightShoulder -1.948043 -16.488072 1.614588
RightArm 20.364772 -20.802842 47.497189
RightForeArm 179.837498 -0.000000 36.825900
RightHand -0.465725 -0.000000 0.558436
RightHandThumb1 -24.326973 -0.000000 -32.862282
LeftUpLeg -63.923221 29.157583 -0.781685
LeftLeg 64.792536 -0.000000 -0.000000
LeftFoot -0.277291 -1.192645 -28.188283
LeftToeBase 14.756452 -0.000000 -0.000000
RightUpLeg -8.254791 -17.521220 5.215599
RightLeg 19.266656 -0.000000 -0.000000
RightFoot -18.103369 -16.130736 -2.217073
RightToeBase 3.226358 -0.000000 -0.000000
2018
root -2.896678 36.569966 -0.225850 1.976104 31.333669 4.689099
Spine 10.802396 4.791589 -2.360382
Head 4.477871 -5.620506 1.183154
LeftShoulder 1.509122 -16.955451 9.692385
LeftArm 8.024902 -18.314745 -46.081195
LeftForeArm 0.327147 0.000000 69.305607
LeftHand -15.910798 -0.000000 47.926577
LeftHandThumb1 -26.253704 0.000000 33.147579
RightShoulder -2.031864 -16.610873 1.702457
RightArm 20.273509 -20.766698 47.533924
RightForeArm 179.845836 -0.000000 36.717062
RightHand -0.360268 -0.000000 0.462440
RightHandThumb1 -24.326973 -0.000000 -32.862282
LeftUpLeg -64.049648 28.957708 -0.677937
LeftLeg 67.478648 -0.000000 -0.000000
LeftFoot -0.602820 -0.411383 -27.890221
LeftToeBase 14.689206 -0.000000 -0.000000
RightUpLeg -8.410315 -17.567470 5.269192
RightLeg 19.317485 -0.000000 -0.000000
RightFoot -18.133477 -16.137938 -2.188774
RightToeBase 3.210435 -0.000000 -0.000000
2019
root -2.887232 36.566966 -0.221047 2.093128 31.389662 4.633738
Spine 10.526184 4.713527 -2.316684
Head 4.437379 -5.647563 1.209078
LeftShoulder 1.515261 -16.898858 9.680645
LeftArm 8.100682 -18.204193 -46.137137
LeftForeArm 0.316459 0.000000 69.282594
LeftHand -15.887971 -0.000000 48.023971
LeftHandThumb1 -26.253704 0.000000 33.147579
RightShoulder -2.105292 -16.704879 1.771566
RightArm 20.159899 -20.753991 47.598210
RightForeArm 179.816122 0.000000 36.548223
RightHand -0.396458 -0.000000 0.578777
RightHandThumb1 -24.326973 -0.000000 -32.862282
LeftUpLeg -64.164702 28.796665 -0.572878
LeftLeg 70.150381 -0.000000 -0.000000
LeftFoot -0.827869 0.340010 -27.554281
LeftToeBase 14.557548 -0.000000 -0.000000
RightUpLeg -8.568133 -17.592538 5.353887
RightLeg 19.348689 -0.000000 -0.000000
RightFoot -18.197962 -16.102382 -2.068397
RightToeBase 3.283469 -0.000000 -0.000000
2020
root -2.876153 36.564048 -0.216213 2.189585 31.441811 4.596909
Spine 10.289129 4.647082 -2.290023
Head 4.398613 -5.668760 1.277302
LeftShoulder 1.523077 -16.845990 9.695658
LeftArm 8.166334 -18.129539 -46.229524
LeftForeArm 0.189861 -0.000000 69.222463
LeftHand -15.398375 0.000000 47.969414
LeftHandThumb1 -26.253704 0.000000 33.147579
RightShoulder -2.189590 -16.787847 1.830505
RightArm 20.079727 -20.758893 47.645621
RightForeArm 179.718575 -0.000000 36.362200
RightHand -0.365624 -0.000000 0.550566
RightHandThumb1 -24.326973 -0.000000 -32.862282
LeftUpLeg -64.228005 28.667943 -0.515440
LeftLeg 72.771169 -0.000000 -0.000000
LeftFoot -1.080213 1.181668 -27.459467
LeftToeBase 15.047673 -0.000000 -0.000000
RightUpLeg -8.693468 -17.626895 5.405900
RightLeg 19.409870 -0.000000 -0.000000
RightFoot -18.213558 -16.143314 -2.088304
RightToeBase 3.204292 -0.000000 -0.000000
2021
root -2.863734 36.561664 -0.209373 2.275772 31.479107 4.546615
Spine 10.050707 4.568925 -2.248665
Head 4.362606 -5.666504 1.320435
LeftShoulder 1.505179 -16.805480 9.701114
LeftArm 8.215797 -17.985445 -46.286800
LeftForeArm 0.216477 -0.000000 69.217180
LeftHand -15.347842 -0.000000 47.750431
LeftHandThumb1 -26.253704 0.000000 33.147579
RightShoulder -2.252473 -16.853313 1.891320
RightArm 19.972073 -20.771534 47.704937
RightForeArm 179.679549 0.000000 36.165095
RightHand -0.300572 -0.000000 0.609030
RightHandThumb1 -24.326973 -0.000000 -32.862282
LeftUpLeg -64.246171 28.561370 -0.437699
LeftLeg 75.361627 -0.000000 -0.000000
LeftFoot -1.193599 1.930351 -27.329362
LeftToeBase 14.972564 -0.000000 -0.000000
RightUpLeg -8.806884 -17.566895 5.466293
RightLeg 19.445044 -0.000000 -0.000000
RightFoot -18.302524 -16.153213 -1.908481
RightToeBase 3.325743 -0.000000 -0.000000
2022
root -2.853183 36.558796 -0.204987 2.389798 31.500474 4.480390
Spine 9.769946 4.498073 -2.196314
Head 4.331287 -5.655280 1.377604
LeftShoulder 1.483423 -16.760325 9.694351
LeftArm 8.254456 -17.846337 -46.322792
LeftForeArm 0.285829 -0.000000 69.234699
LeftHand -15.322832 -0.000000 47.830200
LeftHandThumb1 -26.253704 0.000000 33.147579
RightShoulder -2.309365 -16.888539 1.945467
RightArm 19.822093 -20.777234 47.804492
RightForeArm 179.571842 -0.000000 35.949778
RightHand -0.331627 -0.000000 0.566319
RightHandThumb1 -24.326973 -0.000000 -32.862282
LeftUpLeg -64.274514 28.476959 -0.358853
LeftLeg 77.875406 -0.000000 -0.000000
LeftFoot -1.370841 2.551264 -27.820720
LeftToeBase 15.468570 -0.000000 -0.000000
RightUpLeg -8.962034 -17.616443 5.553975
RightLeg 19.490841 -0.000000 -0.000000
RightFoot -18.290767 -16.158885 -1.986275
RightToeBase 3.254726 -0.000000 -0.000000
2023
root -2.845425 36.554937 -0.199568 2.520657 31.480104 4.387846
Spine 9.432669 4.452261 -2.127212
Head 4.337083 -5.614893 1.450116
LeftShoulder 1.448308 -16.690566 9.703137
LeftArm 8.283717 -17.687127 -46.374030
LeftForeArm 0.259438 -0.000000 69.281073
LeftHand -15.482169 -0.000000 47.803653
LeftHandThumb1 -26.253704 0.000000 33.147579
RightShoulder -2.351323 -16.977638 1.990429
RightArm 19.717440 -20.768978 47.893381
RightForeArm 179.472080 -0.000000 35.714699
RightHand -0.281688 0.000000 0.526834
RightHandThumb1 -24.326973 -0.000000 -32.862282
LeftUpLeg -64.294958 28.439786 -0.254162
LeftLeg 80.345183 -0.000000 -0.000000
LeftFoot -1.219287 3.025334 -27.517414
LeftToeBase 14.930844 -0.000000 -0.000000
RightUpLeg -9.152123 -17.652708 5.678718
RightLeg 19.529150 -0.000000 -0.000000
RightFoot -18.307097 -16.093608 -1.995326
RightToeBase 3.258215 -0.000000 -0.000000
2024
root -2.835936 36.550882 -0.191384 2.637757 31.454918 4.287989
Spine 9.095012 4.415103 -2.038124
Head 4.395542 -5.586165 1.451423
LeftShoulder 1.424795 -16.580146 9.689094
LeftArm 8.333467 -17.561181 -46.410890
LeftForeArm 0.391668 -0.000000 69.291821
LeftHand -15.469639 -0.000000 47.765509
LeftHandThumb1 -26.253704 0.000000 33.147579
RightShoulder -2.416087 -17.075580 2.030881
RightArm 19.611605 -20.759945 47.994073
RightForeArm 179.429530 -0.000000 35.488721
RightHand -0.228444 0.000000 0.424205
RightHandThumb1 -24.326973 -0.000000 -32.862282
LeftUpLeg -64.300400 28.412906 -0.167568
LeftLeg 82.759252 -0.000000 -0.000000
LeftFoot -1.091690 3.466413 -27.354599
LeftToeBase 14.788086 -0.000000 -0.000000
RightUpLeg -9.319231 -17.670645 5.804000
RightLeg 19.553224 -0.000000 -0.000000
RightFoot -18.330217 -16.031510 -1.975777
RightToeBase 3.221337 -0.000000 -0.000000
